<mxfile host="Electron" modified="2024-08-28T02:41:23.104Z" agent="Mozilla/5.0 (Windows NT 10.0; Win64; x64) AppleWebKit/537.36 (KHTML, like Gecko) draw.io/21.7.5 Chrome/114.0.5735.289 Electron/25.8.1 Safari/537.36" etag="Bk9Ig6QPr4IbItT64xyI" version="21.7.5" type="device">
  <diagram name="第 1 页" id="i86teKbIAEDVu-14ztZQ">
    <mxGraphModel dx="1434" dy="844" grid="1" gridSize="10" guides="1" tooltips="1" connect="1" arrows="1" fold="1" page="1" pageScale="1" pageWidth="827" pageHeight="1169" math="0" shadow="0">
      <root>
        <mxCell id="0" />
        <mxCell id="1" parent="0" />
        <mxCell id="ZMYjU9rQy1zcbgjw8tYx-1" value="" style="endArrow=none;html=1;rounded=0;" edge="1" parent="1">
          <mxGeometry width="50" height="50" relative="1" as="geometry">
            <mxPoint x="819" y="330" as="sourcePoint" />
            <mxPoint x="819" y="290" as="targetPoint" />
          </mxGeometry>
        </mxCell>
        <mxCell id="ZMYjU9rQy1zcbgjw8tYx-2" value="" style="endArrow=none;html=1;rounded=0;" edge="1" parent="1">
          <mxGeometry width="50" height="50" relative="1" as="geometry">
            <mxPoint x="839" y="330" as="sourcePoint" />
            <mxPoint x="839" y="290" as="targetPoint" />
          </mxGeometry>
        </mxCell>
        <mxCell id="ZMYjU9rQy1zcbgjw8tYx-3" value="" style="endArrow=none;html=1;rounded=0;" edge="1" parent="1">
          <mxGeometry width="50" height="50" relative="1" as="geometry">
            <mxPoint x="819" y="290" as="sourcePoint" />
            <mxPoint x="839" y="290" as="targetPoint" />
          </mxGeometry>
        </mxCell>
        <mxCell id="ZMYjU9rQy1zcbgjw8tYx-4" value="" style="endArrow=none;html=1;rounded=0;" edge="1" parent="1">
          <mxGeometry width="50" height="50" relative="1" as="geometry">
            <mxPoint x="839" y="330" as="sourcePoint" />
            <mxPoint x="859" y="330" as="targetPoint" />
          </mxGeometry>
        </mxCell>
        <mxCell id="ZMYjU9rQy1zcbgjw8tYx-5" value="" style="endArrow=none;html=1;rounded=0;" edge="1" parent="1">
          <mxGeometry width="50" height="50" relative="1" as="geometry">
            <mxPoint x="779" y="330" as="sourcePoint" />
            <mxPoint x="779" y="290" as="targetPoint" />
          </mxGeometry>
        </mxCell>
        <mxCell id="ZMYjU9rQy1zcbgjw8tYx-6" value="" style="endArrow=none;html=1;rounded=0;" edge="1" parent="1">
          <mxGeometry width="50" height="50" relative="1" as="geometry">
            <mxPoint x="799" y="330" as="sourcePoint" />
            <mxPoint x="799" y="290" as="targetPoint" />
          </mxGeometry>
        </mxCell>
        <mxCell id="ZMYjU9rQy1zcbgjw8tYx-7" value="" style="endArrow=none;html=1;rounded=0;" edge="1" parent="1">
          <mxGeometry width="50" height="50" relative="1" as="geometry">
            <mxPoint x="779" y="290" as="sourcePoint" />
            <mxPoint x="799" y="290" as="targetPoint" />
          </mxGeometry>
        </mxCell>
        <mxCell id="ZMYjU9rQy1zcbgjw8tYx-8" value="" style="endArrow=none;html=1;rounded=0;" edge="1" parent="1">
          <mxGeometry width="50" height="50" relative="1" as="geometry">
            <mxPoint x="799" y="330" as="sourcePoint" />
            <mxPoint x="819" y="330" as="targetPoint" />
          </mxGeometry>
        </mxCell>
        <mxCell id="ZMYjU9rQy1zcbgjw8tYx-9" value="" style="endArrow=none;html=1;rounded=0;" edge="1" parent="1">
          <mxGeometry width="50" height="50" relative="1" as="geometry">
            <mxPoint x="739" y="330" as="sourcePoint" />
            <mxPoint x="739" y="290" as="targetPoint" />
          </mxGeometry>
        </mxCell>
        <mxCell id="ZMYjU9rQy1zcbgjw8tYx-10" value="" style="endArrow=none;html=1;rounded=0;" edge="1" parent="1">
          <mxGeometry width="50" height="50" relative="1" as="geometry">
            <mxPoint x="759" y="330" as="sourcePoint" />
            <mxPoint x="759" y="290" as="targetPoint" />
          </mxGeometry>
        </mxCell>
        <mxCell id="ZMYjU9rQy1zcbgjw8tYx-11" value="" style="endArrow=none;html=1;rounded=0;" edge="1" parent="1">
          <mxGeometry width="50" height="50" relative="1" as="geometry">
            <mxPoint x="739" y="290" as="sourcePoint" />
            <mxPoint x="759" y="290" as="targetPoint" />
          </mxGeometry>
        </mxCell>
        <mxCell id="ZMYjU9rQy1zcbgjw8tYx-12" value="" style="endArrow=none;html=1;rounded=0;" edge="1" parent="1">
          <mxGeometry width="50" height="50" relative="1" as="geometry">
            <mxPoint x="759" y="330" as="sourcePoint" />
            <mxPoint x="779" y="330" as="targetPoint" />
          </mxGeometry>
        </mxCell>
        <mxCell id="ZMYjU9rQy1zcbgjw8tYx-13" value="" style="endArrow=none;html=1;rounded=0;" edge="1" parent="1">
          <mxGeometry width="50" height="50" relative="1" as="geometry">
            <mxPoint x="699" y="330" as="sourcePoint" />
            <mxPoint x="699" y="290" as="targetPoint" />
          </mxGeometry>
        </mxCell>
        <mxCell id="ZMYjU9rQy1zcbgjw8tYx-14" value="" style="endArrow=none;html=1;rounded=0;" edge="1" parent="1">
          <mxGeometry width="50" height="50" relative="1" as="geometry">
            <mxPoint x="719" y="330" as="sourcePoint" />
            <mxPoint x="719" y="290" as="targetPoint" />
          </mxGeometry>
        </mxCell>
        <mxCell id="ZMYjU9rQy1zcbgjw8tYx-15" value="" style="endArrow=none;html=1;rounded=0;" edge="1" parent="1">
          <mxGeometry width="50" height="50" relative="1" as="geometry">
            <mxPoint x="699" y="290" as="sourcePoint" />
            <mxPoint x="719" y="290" as="targetPoint" />
          </mxGeometry>
        </mxCell>
        <mxCell id="ZMYjU9rQy1zcbgjw8tYx-16" value="" style="endArrow=none;html=1;rounded=0;" edge="1" parent="1">
          <mxGeometry width="50" height="50" relative="1" as="geometry">
            <mxPoint x="719" y="330" as="sourcePoint" />
            <mxPoint x="739" y="330" as="targetPoint" />
          </mxGeometry>
        </mxCell>
        <mxCell id="ZMYjU9rQy1zcbgjw8tYx-17" value="" style="endArrow=none;html=1;rounded=0;" edge="1" parent="1">
          <mxGeometry width="50" height="50" relative="1" as="geometry">
            <mxPoint x="659" y="330" as="sourcePoint" />
            <mxPoint x="659" y="290" as="targetPoint" />
          </mxGeometry>
        </mxCell>
        <mxCell id="ZMYjU9rQy1zcbgjw8tYx-18" value="" style="endArrow=none;html=1;rounded=0;" edge="1" parent="1">
          <mxGeometry width="50" height="50" relative="1" as="geometry">
            <mxPoint x="679" y="330" as="sourcePoint" />
            <mxPoint x="679" y="290" as="targetPoint" />
          </mxGeometry>
        </mxCell>
        <mxCell id="ZMYjU9rQy1zcbgjw8tYx-19" value="" style="endArrow=none;html=1;rounded=0;" edge="1" parent="1">
          <mxGeometry width="50" height="50" relative="1" as="geometry">
            <mxPoint x="659" y="290" as="sourcePoint" />
            <mxPoint x="679" y="290" as="targetPoint" />
          </mxGeometry>
        </mxCell>
        <mxCell id="ZMYjU9rQy1zcbgjw8tYx-20" value="" style="endArrow=none;html=1;rounded=0;" edge="1" parent="1">
          <mxGeometry width="50" height="50" relative="1" as="geometry">
            <mxPoint x="679" y="330" as="sourcePoint" />
            <mxPoint x="699" y="330" as="targetPoint" />
          </mxGeometry>
        </mxCell>
        <mxCell id="ZMYjU9rQy1zcbgjw8tYx-21" value="" style="endArrow=none;html=1;rounded=0;" edge="1" parent="1">
          <mxGeometry width="50" height="50" relative="1" as="geometry">
            <mxPoint x="619" y="330" as="sourcePoint" />
            <mxPoint x="619" y="290" as="targetPoint" />
          </mxGeometry>
        </mxCell>
        <mxCell id="ZMYjU9rQy1zcbgjw8tYx-22" value="" style="endArrow=none;html=1;rounded=0;" edge="1" parent="1">
          <mxGeometry width="50" height="50" relative="1" as="geometry">
            <mxPoint x="639" y="330" as="sourcePoint" />
            <mxPoint x="639" y="290" as="targetPoint" />
          </mxGeometry>
        </mxCell>
        <mxCell id="ZMYjU9rQy1zcbgjw8tYx-23" value="" style="endArrow=none;html=1;rounded=0;" edge="1" parent="1">
          <mxGeometry width="50" height="50" relative="1" as="geometry">
            <mxPoint x="619" y="290" as="sourcePoint" />
            <mxPoint x="639" y="290" as="targetPoint" />
          </mxGeometry>
        </mxCell>
        <mxCell id="ZMYjU9rQy1zcbgjw8tYx-24" value="" style="endArrow=none;html=1;rounded=0;" edge="1" parent="1">
          <mxGeometry width="50" height="50" relative="1" as="geometry">
            <mxPoint x="639" y="330" as="sourcePoint" />
            <mxPoint x="659" y="330" as="targetPoint" />
          </mxGeometry>
        </mxCell>
        <mxCell id="ZMYjU9rQy1zcbgjw8tYx-25" value="" style="endArrow=none;html=1;rounded=0;" edge="1" parent="1">
          <mxGeometry width="50" height="50" relative="1" as="geometry">
            <mxPoint x="1059" y="330" as="sourcePoint" />
            <mxPoint x="1059" y="290" as="targetPoint" />
          </mxGeometry>
        </mxCell>
        <mxCell id="ZMYjU9rQy1zcbgjw8tYx-26" value="" style="endArrow=none;html=1;rounded=0;" edge="1" parent="1">
          <mxGeometry width="50" height="50" relative="1" as="geometry">
            <mxPoint x="1079" y="330" as="sourcePoint" />
            <mxPoint x="1079" y="290" as="targetPoint" />
          </mxGeometry>
        </mxCell>
        <mxCell id="ZMYjU9rQy1zcbgjw8tYx-27" value="" style="endArrow=none;html=1;rounded=0;" edge="1" parent="1">
          <mxGeometry width="50" height="50" relative="1" as="geometry">
            <mxPoint x="1059" y="290" as="sourcePoint" />
            <mxPoint x="1079" y="290" as="targetPoint" />
          </mxGeometry>
        </mxCell>
        <mxCell id="ZMYjU9rQy1zcbgjw8tYx-28" value="" style="endArrow=none;html=1;rounded=0;" edge="1" parent="1">
          <mxGeometry width="50" height="50" relative="1" as="geometry">
            <mxPoint x="1079" y="330" as="sourcePoint" />
            <mxPoint x="1099" y="330" as="targetPoint" />
          </mxGeometry>
        </mxCell>
        <mxCell id="ZMYjU9rQy1zcbgjw8tYx-29" value="" style="endArrow=none;html=1;rounded=0;" edge="1" parent="1">
          <mxGeometry width="50" height="50" relative="1" as="geometry">
            <mxPoint x="1019" y="330" as="sourcePoint" />
            <mxPoint x="1019" y="290" as="targetPoint" />
          </mxGeometry>
        </mxCell>
        <mxCell id="ZMYjU9rQy1zcbgjw8tYx-30" value="" style="endArrow=none;html=1;rounded=0;" edge="1" parent="1">
          <mxGeometry width="50" height="50" relative="1" as="geometry">
            <mxPoint x="1039" y="330" as="sourcePoint" />
            <mxPoint x="1039" y="290" as="targetPoint" />
          </mxGeometry>
        </mxCell>
        <mxCell id="ZMYjU9rQy1zcbgjw8tYx-31" value="" style="endArrow=none;html=1;rounded=0;" edge="1" parent="1">
          <mxGeometry width="50" height="50" relative="1" as="geometry">
            <mxPoint x="1019" y="290" as="sourcePoint" />
            <mxPoint x="1039" y="290" as="targetPoint" />
          </mxGeometry>
        </mxCell>
        <mxCell id="ZMYjU9rQy1zcbgjw8tYx-32" value="" style="endArrow=none;html=1;rounded=0;" edge="1" parent="1">
          <mxGeometry width="50" height="50" relative="1" as="geometry">
            <mxPoint x="1039" y="330" as="sourcePoint" />
            <mxPoint x="1059" y="330" as="targetPoint" />
          </mxGeometry>
        </mxCell>
        <mxCell id="ZMYjU9rQy1zcbgjw8tYx-33" value="" style="endArrow=none;html=1;rounded=0;" edge="1" parent="1">
          <mxGeometry width="50" height="50" relative="1" as="geometry">
            <mxPoint x="979" y="330" as="sourcePoint" />
            <mxPoint x="979" y="290" as="targetPoint" />
          </mxGeometry>
        </mxCell>
        <mxCell id="ZMYjU9rQy1zcbgjw8tYx-34" value="" style="endArrow=none;html=1;rounded=0;" edge="1" parent="1">
          <mxGeometry width="50" height="50" relative="1" as="geometry">
            <mxPoint x="999" y="330" as="sourcePoint" />
            <mxPoint x="999" y="290" as="targetPoint" />
          </mxGeometry>
        </mxCell>
        <mxCell id="ZMYjU9rQy1zcbgjw8tYx-35" value="" style="endArrow=none;html=1;rounded=0;" edge="1" parent="1">
          <mxGeometry width="50" height="50" relative="1" as="geometry">
            <mxPoint x="979" y="290" as="sourcePoint" />
            <mxPoint x="999" y="290" as="targetPoint" />
          </mxGeometry>
        </mxCell>
        <mxCell id="ZMYjU9rQy1zcbgjw8tYx-36" value="" style="endArrow=none;html=1;rounded=0;" edge="1" parent="1">
          <mxGeometry width="50" height="50" relative="1" as="geometry">
            <mxPoint x="999" y="330" as="sourcePoint" />
            <mxPoint x="1019" y="330" as="targetPoint" />
          </mxGeometry>
        </mxCell>
        <mxCell id="ZMYjU9rQy1zcbgjw8tYx-37" value="" style="endArrow=none;html=1;rounded=0;" edge="1" parent="1">
          <mxGeometry width="50" height="50" relative="1" as="geometry">
            <mxPoint x="939" y="330" as="sourcePoint" />
            <mxPoint x="939" y="290" as="targetPoint" />
          </mxGeometry>
        </mxCell>
        <mxCell id="ZMYjU9rQy1zcbgjw8tYx-38" value="" style="endArrow=none;html=1;rounded=0;" edge="1" parent="1">
          <mxGeometry width="50" height="50" relative="1" as="geometry">
            <mxPoint x="959" y="330" as="sourcePoint" />
            <mxPoint x="959" y="290" as="targetPoint" />
          </mxGeometry>
        </mxCell>
        <mxCell id="ZMYjU9rQy1zcbgjw8tYx-39" value="" style="endArrow=none;html=1;rounded=0;" edge="1" parent="1">
          <mxGeometry width="50" height="50" relative="1" as="geometry">
            <mxPoint x="939" y="290" as="sourcePoint" />
            <mxPoint x="959" y="290" as="targetPoint" />
          </mxGeometry>
        </mxCell>
        <mxCell id="ZMYjU9rQy1zcbgjw8tYx-40" value="" style="endArrow=none;html=1;rounded=0;" edge="1" parent="1">
          <mxGeometry width="50" height="50" relative="1" as="geometry">
            <mxPoint x="959" y="330" as="sourcePoint" />
            <mxPoint x="979" y="330" as="targetPoint" />
          </mxGeometry>
        </mxCell>
        <mxCell id="ZMYjU9rQy1zcbgjw8tYx-41" value="" style="endArrow=none;html=1;rounded=0;" edge="1" parent="1">
          <mxGeometry width="50" height="50" relative="1" as="geometry">
            <mxPoint x="899" y="330" as="sourcePoint" />
            <mxPoint x="899" y="290" as="targetPoint" />
          </mxGeometry>
        </mxCell>
        <mxCell id="ZMYjU9rQy1zcbgjw8tYx-42" value="" style="endArrow=none;html=1;rounded=0;" edge="1" parent="1">
          <mxGeometry width="50" height="50" relative="1" as="geometry">
            <mxPoint x="919" y="330" as="sourcePoint" />
            <mxPoint x="919" y="290" as="targetPoint" />
          </mxGeometry>
        </mxCell>
        <mxCell id="ZMYjU9rQy1zcbgjw8tYx-43" value="" style="endArrow=none;html=1;rounded=0;" edge="1" parent="1">
          <mxGeometry width="50" height="50" relative="1" as="geometry">
            <mxPoint x="899" y="290" as="sourcePoint" />
            <mxPoint x="919" y="290" as="targetPoint" />
          </mxGeometry>
        </mxCell>
        <mxCell id="ZMYjU9rQy1zcbgjw8tYx-44" value="" style="endArrow=none;html=1;rounded=0;" edge="1" parent="1">
          <mxGeometry width="50" height="50" relative="1" as="geometry">
            <mxPoint x="919" y="330" as="sourcePoint" />
            <mxPoint x="939" y="330" as="targetPoint" />
          </mxGeometry>
        </mxCell>
        <mxCell id="ZMYjU9rQy1zcbgjw8tYx-45" value="" style="endArrow=none;html=1;rounded=0;" edge="1" parent="1">
          <mxGeometry width="50" height="50" relative="1" as="geometry">
            <mxPoint x="859" y="330" as="sourcePoint" />
            <mxPoint x="859" y="290" as="targetPoint" />
          </mxGeometry>
        </mxCell>
        <mxCell id="ZMYjU9rQy1zcbgjw8tYx-46" value="" style="endArrow=none;html=1;rounded=0;" edge="1" parent="1">
          <mxGeometry width="50" height="50" relative="1" as="geometry">
            <mxPoint x="879" y="330" as="sourcePoint" />
            <mxPoint x="879" y="290" as="targetPoint" />
          </mxGeometry>
        </mxCell>
        <mxCell id="ZMYjU9rQy1zcbgjw8tYx-47" value="" style="endArrow=none;html=1;rounded=0;" edge="1" parent="1">
          <mxGeometry width="50" height="50" relative="1" as="geometry">
            <mxPoint x="859" y="290" as="sourcePoint" />
            <mxPoint x="879" y="290" as="targetPoint" />
          </mxGeometry>
        </mxCell>
        <mxCell id="ZMYjU9rQy1zcbgjw8tYx-48" value="" style="endArrow=none;html=1;rounded=0;" edge="1" parent="1">
          <mxGeometry width="50" height="50" relative="1" as="geometry">
            <mxPoint x="879" y="330" as="sourcePoint" />
            <mxPoint x="899" y="330" as="targetPoint" />
          </mxGeometry>
        </mxCell>
        <mxCell id="ZMYjU9rQy1zcbgjw8tYx-49" value="" style="endArrow=none;html=1;rounded=0;" edge="1" parent="1">
          <mxGeometry width="50" height="50" relative="1" as="geometry">
            <mxPoint x="339" y="330" as="sourcePoint" />
            <mxPoint x="339" y="290" as="targetPoint" />
          </mxGeometry>
        </mxCell>
        <mxCell id="ZMYjU9rQy1zcbgjw8tYx-50" value="" style="endArrow=none;html=1;rounded=0;" edge="1" parent="1">
          <mxGeometry width="50" height="50" relative="1" as="geometry">
            <mxPoint x="359" y="330" as="sourcePoint" />
            <mxPoint x="359" y="290" as="targetPoint" />
          </mxGeometry>
        </mxCell>
        <mxCell id="ZMYjU9rQy1zcbgjw8tYx-51" value="" style="endArrow=none;html=1;rounded=0;" edge="1" parent="1">
          <mxGeometry width="50" height="50" relative="1" as="geometry">
            <mxPoint x="339" y="290" as="sourcePoint" />
            <mxPoint x="359" y="290" as="targetPoint" />
          </mxGeometry>
        </mxCell>
        <mxCell id="ZMYjU9rQy1zcbgjw8tYx-52" value="" style="endArrow=none;html=1;rounded=0;" edge="1" parent="1">
          <mxGeometry width="50" height="50" relative="1" as="geometry">
            <mxPoint x="359" y="330" as="sourcePoint" />
            <mxPoint x="379" y="330" as="targetPoint" />
          </mxGeometry>
        </mxCell>
        <mxCell id="ZMYjU9rQy1zcbgjw8tYx-53" value="" style="endArrow=none;html=1;rounded=0;" edge="1" parent="1">
          <mxGeometry width="50" height="50" relative="1" as="geometry">
            <mxPoint x="299" y="330" as="sourcePoint" />
            <mxPoint x="299" y="290" as="targetPoint" />
          </mxGeometry>
        </mxCell>
        <mxCell id="ZMYjU9rQy1zcbgjw8tYx-54" value="" style="endArrow=none;html=1;rounded=0;" edge="1" parent="1">
          <mxGeometry width="50" height="50" relative="1" as="geometry">
            <mxPoint x="319" y="330" as="sourcePoint" />
            <mxPoint x="319" y="290" as="targetPoint" />
          </mxGeometry>
        </mxCell>
        <mxCell id="ZMYjU9rQy1zcbgjw8tYx-55" value="" style="endArrow=none;html=1;rounded=0;" edge="1" parent="1">
          <mxGeometry width="50" height="50" relative="1" as="geometry">
            <mxPoint x="299" y="290" as="sourcePoint" />
            <mxPoint x="319" y="290" as="targetPoint" />
          </mxGeometry>
        </mxCell>
        <mxCell id="ZMYjU9rQy1zcbgjw8tYx-56" value="" style="endArrow=none;html=1;rounded=0;" edge="1" parent="1">
          <mxGeometry width="50" height="50" relative="1" as="geometry">
            <mxPoint x="319" y="330" as="sourcePoint" />
            <mxPoint x="339" y="330" as="targetPoint" />
          </mxGeometry>
        </mxCell>
        <mxCell id="ZMYjU9rQy1zcbgjw8tYx-57" value="" style="endArrow=none;html=1;rounded=0;" edge="1" parent="1">
          <mxGeometry width="50" height="50" relative="1" as="geometry">
            <mxPoint x="259" y="330" as="sourcePoint" />
            <mxPoint x="259" y="290" as="targetPoint" />
          </mxGeometry>
        </mxCell>
        <mxCell id="ZMYjU9rQy1zcbgjw8tYx-58" value="" style="endArrow=none;html=1;rounded=0;" edge="1" parent="1">
          <mxGeometry width="50" height="50" relative="1" as="geometry">
            <mxPoint x="279" y="330" as="sourcePoint" />
            <mxPoint x="279" y="290" as="targetPoint" />
          </mxGeometry>
        </mxCell>
        <mxCell id="ZMYjU9rQy1zcbgjw8tYx-59" value="" style="endArrow=none;html=1;rounded=0;" edge="1" parent="1">
          <mxGeometry width="50" height="50" relative="1" as="geometry">
            <mxPoint x="259" y="290" as="sourcePoint" />
            <mxPoint x="279" y="290" as="targetPoint" />
          </mxGeometry>
        </mxCell>
        <mxCell id="ZMYjU9rQy1zcbgjw8tYx-60" value="" style="endArrow=none;html=1;rounded=0;" edge="1" parent="1">
          <mxGeometry width="50" height="50" relative="1" as="geometry">
            <mxPoint x="279" y="330" as="sourcePoint" />
            <mxPoint x="299" y="330" as="targetPoint" />
          </mxGeometry>
        </mxCell>
        <mxCell id="ZMYjU9rQy1zcbgjw8tYx-61" value="" style="endArrow=none;html=1;rounded=0;" edge="1" parent="1">
          <mxGeometry width="50" height="50" relative="1" as="geometry">
            <mxPoint x="219" y="330" as="sourcePoint" />
            <mxPoint x="219" y="290" as="targetPoint" />
          </mxGeometry>
        </mxCell>
        <mxCell id="ZMYjU9rQy1zcbgjw8tYx-62" value="" style="endArrow=none;html=1;rounded=0;" edge="1" parent="1">
          <mxGeometry width="50" height="50" relative="1" as="geometry">
            <mxPoint x="239" y="330" as="sourcePoint" />
            <mxPoint x="239" y="290" as="targetPoint" />
          </mxGeometry>
        </mxCell>
        <mxCell id="ZMYjU9rQy1zcbgjw8tYx-63" value="" style="endArrow=none;html=1;rounded=0;" edge="1" parent="1">
          <mxGeometry width="50" height="50" relative="1" as="geometry">
            <mxPoint x="219" y="290" as="sourcePoint" />
            <mxPoint x="239" y="290" as="targetPoint" />
          </mxGeometry>
        </mxCell>
        <mxCell id="ZMYjU9rQy1zcbgjw8tYx-64" value="" style="endArrow=none;html=1;rounded=0;" edge="1" parent="1">
          <mxGeometry width="50" height="50" relative="1" as="geometry">
            <mxPoint x="239" y="330" as="sourcePoint" />
            <mxPoint x="259" y="330" as="targetPoint" />
          </mxGeometry>
        </mxCell>
        <mxCell id="ZMYjU9rQy1zcbgjw8tYx-65" value="" style="endArrow=none;html=1;rounded=0;" edge="1" parent="1">
          <mxGeometry width="50" height="50" relative="1" as="geometry">
            <mxPoint x="179" y="330" as="sourcePoint" />
            <mxPoint x="179" y="290" as="targetPoint" />
          </mxGeometry>
        </mxCell>
        <mxCell id="ZMYjU9rQy1zcbgjw8tYx-66" value="" style="endArrow=none;html=1;rounded=0;" edge="1" parent="1">
          <mxGeometry width="50" height="50" relative="1" as="geometry">
            <mxPoint x="199" y="330" as="sourcePoint" />
            <mxPoint x="199" y="290" as="targetPoint" />
          </mxGeometry>
        </mxCell>
        <mxCell id="ZMYjU9rQy1zcbgjw8tYx-67" value="" style="endArrow=none;html=1;rounded=0;" edge="1" parent="1">
          <mxGeometry width="50" height="50" relative="1" as="geometry">
            <mxPoint x="179" y="290" as="sourcePoint" />
            <mxPoint x="199" y="290" as="targetPoint" />
          </mxGeometry>
        </mxCell>
        <mxCell id="ZMYjU9rQy1zcbgjw8tYx-68" value="" style="endArrow=none;html=1;rounded=0;" edge="1" parent="1">
          <mxGeometry width="50" height="50" relative="1" as="geometry">
            <mxPoint x="199" y="330" as="sourcePoint" />
            <mxPoint x="219" y="330" as="targetPoint" />
          </mxGeometry>
        </mxCell>
        <mxCell id="ZMYjU9rQy1zcbgjw8tYx-69" value="" style="endArrow=none;html=1;rounded=0;" edge="1" parent="1">
          <mxGeometry width="50" height="50" relative="1" as="geometry">
            <mxPoint x="139" y="330" as="sourcePoint" />
            <mxPoint x="139" y="290" as="targetPoint" />
          </mxGeometry>
        </mxCell>
        <mxCell id="ZMYjU9rQy1zcbgjw8tYx-70" value="" style="endArrow=none;html=1;rounded=0;" edge="1" parent="1">
          <mxGeometry width="50" height="50" relative="1" as="geometry">
            <mxPoint x="159" y="330" as="sourcePoint" />
            <mxPoint x="159" y="290" as="targetPoint" />
          </mxGeometry>
        </mxCell>
        <mxCell id="ZMYjU9rQy1zcbgjw8tYx-71" value="" style="endArrow=none;html=1;rounded=0;" edge="1" parent="1">
          <mxGeometry width="50" height="50" relative="1" as="geometry">
            <mxPoint x="139" y="290" as="sourcePoint" />
            <mxPoint x="159" y="290" as="targetPoint" />
          </mxGeometry>
        </mxCell>
        <mxCell id="ZMYjU9rQy1zcbgjw8tYx-72" value="" style="endArrow=none;html=1;rounded=0;" edge="1" parent="1">
          <mxGeometry width="50" height="50" relative="1" as="geometry">
            <mxPoint x="159" y="330" as="sourcePoint" />
            <mxPoint x="179" y="330" as="targetPoint" />
          </mxGeometry>
        </mxCell>
        <mxCell id="ZMYjU9rQy1zcbgjw8tYx-73" value="" style="endArrow=none;html=1;rounded=0;" edge="1" parent="1">
          <mxGeometry width="50" height="50" relative="1" as="geometry">
            <mxPoint x="579" y="330" as="sourcePoint" />
            <mxPoint x="579" y="290" as="targetPoint" />
          </mxGeometry>
        </mxCell>
        <mxCell id="ZMYjU9rQy1zcbgjw8tYx-74" value="" style="endArrow=none;html=1;rounded=0;" edge="1" parent="1">
          <mxGeometry width="50" height="50" relative="1" as="geometry">
            <mxPoint x="599" y="330" as="sourcePoint" />
            <mxPoint x="599" y="290" as="targetPoint" />
          </mxGeometry>
        </mxCell>
        <mxCell id="ZMYjU9rQy1zcbgjw8tYx-75" value="" style="endArrow=none;html=1;rounded=0;" edge="1" parent="1">
          <mxGeometry width="50" height="50" relative="1" as="geometry">
            <mxPoint x="579" y="290" as="sourcePoint" />
            <mxPoint x="599" y="290" as="targetPoint" />
          </mxGeometry>
        </mxCell>
        <mxCell id="ZMYjU9rQy1zcbgjw8tYx-76" value="" style="endArrow=none;html=1;rounded=0;" edge="1" parent="1">
          <mxGeometry width="50" height="50" relative="1" as="geometry">
            <mxPoint x="599" y="330" as="sourcePoint" />
            <mxPoint x="619" y="330" as="targetPoint" />
          </mxGeometry>
        </mxCell>
        <mxCell id="ZMYjU9rQy1zcbgjw8tYx-77" value="" style="endArrow=none;html=1;rounded=0;" edge="1" parent="1">
          <mxGeometry width="50" height="50" relative="1" as="geometry">
            <mxPoint x="539" y="330" as="sourcePoint" />
            <mxPoint x="539" y="290" as="targetPoint" />
          </mxGeometry>
        </mxCell>
        <mxCell id="ZMYjU9rQy1zcbgjw8tYx-78" value="" style="endArrow=none;html=1;rounded=0;" edge="1" parent="1">
          <mxGeometry width="50" height="50" relative="1" as="geometry">
            <mxPoint x="559" y="330" as="sourcePoint" />
            <mxPoint x="559" y="290" as="targetPoint" />
          </mxGeometry>
        </mxCell>
        <mxCell id="ZMYjU9rQy1zcbgjw8tYx-79" value="" style="endArrow=none;html=1;rounded=0;" edge="1" parent="1">
          <mxGeometry width="50" height="50" relative="1" as="geometry">
            <mxPoint x="539" y="290" as="sourcePoint" />
            <mxPoint x="559" y="290" as="targetPoint" />
          </mxGeometry>
        </mxCell>
        <mxCell id="ZMYjU9rQy1zcbgjw8tYx-80" value="" style="endArrow=none;html=1;rounded=0;" edge="1" parent="1">
          <mxGeometry width="50" height="50" relative="1" as="geometry">
            <mxPoint x="559" y="330" as="sourcePoint" />
            <mxPoint x="579" y="330" as="targetPoint" />
          </mxGeometry>
        </mxCell>
        <mxCell id="ZMYjU9rQy1zcbgjw8tYx-81" value="" style="endArrow=none;html=1;rounded=0;" edge="1" parent="1">
          <mxGeometry width="50" height="50" relative="1" as="geometry">
            <mxPoint x="499" y="330" as="sourcePoint" />
            <mxPoint x="499" y="290" as="targetPoint" />
          </mxGeometry>
        </mxCell>
        <mxCell id="ZMYjU9rQy1zcbgjw8tYx-82" value="" style="endArrow=none;html=1;rounded=0;" edge="1" parent="1">
          <mxGeometry width="50" height="50" relative="1" as="geometry">
            <mxPoint x="519" y="330" as="sourcePoint" />
            <mxPoint x="519" y="290" as="targetPoint" />
          </mxGeometry>
        </mxCell>
        <mxCell id="ZMYjU9rQy1zcbgjw8tYx-83" value="" style="endArrow=none;html=1;rounded=0;" edge="1" parent="1">
          <mxGeometry width="50" height="50" relative="1" as="geometry">
            <mxPoint x="499" y="290" as="sourcePoint" />
            <mxPoint x="519" y="290" as="targetPoint" />
          </mxGeometry>
        </mxCell>
        <mxCell id="ZMYjU9rQy1zcbgjw8tYx-84" value="" style="endArrow=none;html=1;rounded=0;" edge="1" parent="1">
          <mxGeometry width="50" height="50" relative="1" as="geometry">
            <mxPoint x="519" y="330" as="sourcePoint" />
            <mxPoint x="539" y="330" as="targetPoint" />
          </mxGeometry>
        </mxCell>
        <mxCell id="ZMYjU9rQy1zcbgjw8tYx-85" value="" style="endArrow=none;html=1;rounded=0;" edge="1" parent="1">
          <mxGeometry width="50" height="50" relative="1" as="geometry">
            <mxPoint x="459" y="330" as="sourcePoint" />
            <mxPoint x="459" y="290" as="targetPoint" />
          </mxGeometry>
        </mxCell>
        <mxCell id="ZMYjU9rQy1zcbgjw8tYx-86" value="" style="endArrow=none;html=1;rounded=0;" edge="1" parent="1">
          <mxGeometry width="50" height="50" relative="1" as="geometry">
            <mxPoint x="479" y="330" as="sourcePoint" />
            <mxPoint x="479" y="290" as="targetPoint" />
          </mxGeometry>
        </mxCell>
        <mxCell id="ZMYjU9rQy1zcbgjw8tYx-87" value="" style="endArrow=none;html=1;rounded=0;" edge="1" parent="1">
          <mxGeometry width="50" height="50" relative="1" as="geometry">
            <mxPoint x="459" y="290" as="sourcePoint" />
            <mxPoint x="479" y="290" as="targetPoint" />
          </mxGeometry>
        </mxCell>
        <mxCell id="ZMYjU9rQy1zcbgjw8tYx-88" value="" style="endArrow=none;html=1;rounded=0;" edge="1" parent="1">
          <mxGeometry width="50" height="50" relative="1" as="geometry">
            <mxPoint x="479" y="330" as="sourcePoint" />
            <mxPoint x="499" y="330" as="targetPoint" />
          </mxGeometry>
        </mxCell>
        <mxCell id="ZMYjU9rQy1zcbgjw8tYx-89" value="" style="endArrow=none;html=1;rounded=0;" edge="1" parent="1">
          <mxGeometry width="50" height="50" relative="1" as="geometry">
            <mxPoint x="419" y="330" as="sourcePoint" />
            <mxPoint x="419" y="290" as="targetPoint" />
          </mxGeometry>
        </mxCell>
        <mxCell id="ZMYjU9rQy1zcbgjw8tYx-90" value="" style="endArrow=none;html=1;rounded=0;" edge="1" parent="1">
          <mxGeometry width="50" height="50" relative="1" as="geometry">
            <mxPoint x="439" y="330" as="sourcePoint" />
            <mxPoint x="439" y="290" as="targetPoint" />
          </mxGeometry>
        </mxCell>
        <mxCell id="ZMYjU9rQy1zcbgjw8tYx-91" value="" style="endArrow=none;html=1;rounded=0;" edge="1" parent="1">
          <mxGeometry width="50" height="50" relative="1" as="geometry">
            <mxPoint x="419" y="290" as="sourcePoint" />
            <mxPoint x="439" y="290" as="targetPoint" />
          </mxGeometry>
        </mxCell>
        <mxCell id="ZMYjU9rQy1zcbgjw8tYx-92" value="" style="endArrow=none;html=1;rounded=0;" edge="1" parent="1">
          <mxGeometry width="50" height="50" relative="1" as="geometry">
            <mxPoint x="439" y="330" as="sourcePoint" />
            <mxPoint x="459" y="330" as="targetPoint" />
          </mxGeometry>
        </mxCell>
        <mxCell id="ZMYjU9rQy1zcbgjw8tYx-93" value="" style="endArrow=none;html=1;rounded=0;" edge="1" parent="1">
          <mxGeometry width="50" height="50" relative="1" as="geometry">
            <mxPoint x="379" y="330" as="sourcePoint" />
            <mxPoint x="379" y="290" as="targetPoint" />
          </mxGeometry>
        </mxCell>
        <mxCell id="ZMYjU9rQy1zcbgjw8tYx-94" value="" style="endArrow=none;html=1;rounded=0;" edge="1" parent="1">
          <mxGeometry width="50" height="50" relative="1" as="geometry">
            <mxPoint x="399" y="330" as="sourcePoint" />
            <mxPoint x="399" y="290" as="targetPoint" />
          </mxGeometry>
        </mxCell>
        <mxCell id="ZMYjU9rQy1zcbgjw8tYx-95" value="" style="endArrow=none;html=1;rounded=0;" edge="1" parent="1">
          <mxGeometry width="50" height="50" relative="1" as="geometry">
            <mxPoint x="379" y="290" as="sourcePoint" />
            <mxPoint x="399" y="290" as="targetPoint" />
          </mxGeometry>
        </mxCell>
        <mxCell id="ZMYjU9rQy1zcbgjw8tYx-96" value="" style="endArrow=none;html=1;rounded=0;" edge="1" parent="1">
          <mxGeometry width="50" height="50" relative="1" as="geometry">
            <mxPoint x="399" y="330" as="sourcePoint" />
            <mxPoint x="419" y="330" as="targetPoint" />
          </mxGeometry>
        </mxCell>
        <mxCell id="ZMYjU9rQy1zcbgjw8tYx-97" value="CLK" style="rounded=1;whiteSpace=wrap;html=1;strokeColor=none;fontStyle=1" vertex="1" parent="1">
          <mxGeometry x="50" y="300" width="70" height="30" as="geometry" />
        </mxCell>
        <mxCell id="ZMYjU9rQy1zcbgjw8tYx-98" value="MOSI" style="rounded=1;whiteSpace=wrap;html=1;strokeColor=none;fontStyle=1" vertex="1" parent="1">
          <mxGeometry x="51" y="370" width="70" height="30" as="geometry" />
        </mxCell>
        <mxCell id="ZMYjU9rQy1zcbgjw8tYx-99" value="MISO" style="rounded=1;whiteSpace=wrap;html=1;strokeColor=none;fontStyle=1" vertex="1" parent="1">
          <mxGeometry x="50" y="446" width="70" height="30" as="geometry" />
        </mxCell>
        <mxCell id="ZMYjU9rQy1zcbgjw8tYx-100" value="" style="endArrow=none;html=1;rounded=0;" edge="1" parent="1">
          <mxGeometry width="50" height="50" relative="1" as="geometry">
            <mxPoint x="139" y="390" as="sourcePoint" />
            <mxPoint x="139" y="350" as="targetPoint" />
          </mxGeometry>
        </mxCell>
        <mxCell id="ZMYjU9rQy1zcbgjw8tYx-101" value="" style="endArrow=none;html=1;rounded=0;" edge="1" parent="1">
          <mxGeometry width="50" height="50" relative="1" as="geometry">
            <mxPoint x="179" y="390" as="sourcePoint" />
            <mxPoint x="179" y="350" as="targetPoint" />
          </mxGeometry>
        </mxCell>
        <mxCell id="ZMYjU9rQy1zcbgjw8tYx-102" value="" style="endArrow=none;html=1;rounded=0;" edge="1" parent="1">
          <mxGeometry width="50" height="50" relative="1" as="geometry">
            <mxPoint x="139" y="350" as="sourcePoint" />
            <mxPoint x="179" y="350" as="targetPoint" />
          </mxGeometry>
        </mxCell>
        <mxCell id="ZMYjU9rQy1zcbgjw8tYx-103" value="" style="endArrow=none;html=1;rounded=0;" edge="1" parent="1">
          <mxGeometry width="50" height="50" relative="1" as="geometry">
            <mxPoint x="179" y="390" as="sourcePoint" />
            <mxPoint x="219" y="390" as="targetPoint" />
          </mxGeometry>
        </mxCell>
        <mxCell id="ZMYjU9rQy1zcbgjw8tYx-104" value="" style="endArrow=none;html=1;rounded=0;dashed=1;dashPattern=8 8;" edge="1" parent="1">
          <mxGeometry width="50" height="50" relative="1" as="geometry">
            <mxPoint x="359" y="530" as="sourcePoint" />
            <mxPoint x="359" y="210" as="targetPoint" />
          </mxGeometry>
        </mxCell>
        <mxCell id="ZMYjU9rQy1zcbgjw8tYx-105" value="" style="endArrow=none;html=1;rounded=0;dashed=1;dashPattern=8 8;" edge="1" parent="1">
          <mxGeometry width="50" height="50" relative="1" as="geometry">
            <mxPoint x="259" y="530" as="sourcePoint" />
            <mxPoint x="259" y="210" as="targetPoint" />
          </mxGeometry>
        </mxCell>
        <mxCell id="ZMYjU9rQy1zcbgjw8tYx-106" value="dummy" style="rounded=1;whiteSpace=wrap;html=1;strokeColor=#d6b656;fontStyle=1;fillColor=#fff2cc;" vertex="1" parent="1">
          <mxGeometry x="259" y="360" width="100" height="30" as="geometry" />
        </mxCell>
        <mxCell id="ZMYjU9rQy1zcbgjw8tYx-107" value="" style="endArrow=none;html=1;rounded=0;" edge="1" parent="1">
          <mxGeometry width="50" height="50" relative="1" as="geometry">
            <mxPoint x="419" y="474.16999999999996" as="sourcePoint" />
            <mxPoint x="419" y="434.16999999999996" as="targetPoint" />
          </mxGeometry>
        </mxCell>
        <mxCell id="ZMYjU9rQy1zcbgjw8tYx-108" value="" style="endArrow=none;html=1;rounded=0;" edge="1" parent="1">
          <mxGeometry width="50" height="50" relative="1" as="geometry">
            <mxPoint x="359" y="434.16999999999996" as="sourcePoint" />
            <mxPoint x="419" y="434.16999999999996" as="targetPoint" />
          </mxGeometry>
        </mxCell>
        <mxCell id="ZMYjU9rQy1zcbgjw8tYx-109" value="" style="endArrow=none;html=1;rounded=0;" edge="1" parent="1">
          <mxGeometry width="50" height="50" relative="1" as="geometry">
            <mxPoint x="419" y="474.16999999999996" as="sourcePoint" />
            <mxPoint x="489" y="474.16999999999996" as="targetPoint" />
          </mxGeometry>
        </mxCell>
        <mxCell id="ZMYjU9rQy1zcbgjw8tYx-110" value="" style="endArrow=none;html=1;rounded=0;" edge="1" parent="1">
          <mxGeometry width="50" height="50" relative="1" as="geometry">
            <mxPoint x="489" y="474.16999999999996" as="sourcePoint" />
            <mxPoint x="489" y="434.16999999999996" as="targetPoint" />
          </mxGeometry>
        </mxCell>
        <mxCell id="ZMYjU9rQy1zcbgjw8tYx-111" value="" style="endArrow=none;html=1;rounded=0;" edge="1" parent="1">
          <mxGeometry width="50" height="50" relative="1" as="geometry">
            <mxPoint x="549" y="474.16999999999996" as="sourcePoint" />
            <mxPoint x="549" y="434.16999999999996" as="targetPoint" />
          </mxGeometry>
        </mxCell>
        <mxCell id="ZMYjU9rQy1zcbgjw8tYx-112" value="" style="endArrow=none;html=1;rounded=0;" edge="1" parent="1">
          <mxGeometry width="50" height="50" relative="1" as="geometry">
            <mxPoint x="489" y="434.16999999999996" as="sourcePoint" />
            <mxPoint x="549" y="434.16999999999996" as="targetPoint" />
          </mxGeometry>
        </mxCell>
        <mxCell id="ZMYjU9rQy1zcbgjw8tYx-113" value="" style="endArrow=none;html=1;rounded=0;" edge="1" parent="1">
          <mxGeometry width="50" height="50" relative="1" as="geometry">
            <mxPoint x="549" y="474.16999999999996" as="sourcePoint" />
            <mxPoint x="619" y="474.16999999999996" as="targetPoint" />
          </mxGeometry>
        </mxCell>
        <mxCell id="ZMYjU9rQy1zcbgjw8tYx-114" value="" style="endArrow=none;html=1;rounded=0;" edge="1" parent="1">
          <mxGeometry width="50" height="50" relative="1" as="geometry">
            <mxPoint x="619" y="474.16999999999996" as="sourcePoint" />
            <mxPoint x="619" y="434.16999999999996" as="targetPoint" />
          </mxGeometry>
        </mxCell>
        <mxCell id="ZMYjU9rQy1zcbgjw8tYx-115" value="" style="endArrow=none;html=1;rounded=0;" edge="1" parent="1">
          <mxGeometry width="50" height="50" relative="1" as="geometry">
            <mxPoint x="679" y="474.16999999999996" as="sourcePoint" />
            <mxPoint x="679" y="434.16999999999996" as="targetPoint" />
          </mxGeometry>
        </mxCell>
        <mxCell id="ZMYjU9rQy1zcbgjw8tYx-116" value="" style="endArrow=none;html=1;rounded=0;" edge="1" parent="1">
          <mxGeometry width="50" height="50" relative="1" as="geometry">
            <mxPoint x="619" y="434.16999999999996" as="sourcePoint" />
            <mxPoint x="679" y="434.16999999999996" as="targetPoint" />
          </mxGeometry>
        </mxCell>
        <mxCell id="ZMYjU9rQy1zcbgjw8tYx-117" value="" style="endArrow=none;html=1;rounded=0;" edge="1" parent="1">
          <mxGeometry width="50" height="50" relative="1" as="geometry">
            <mxPoint x="679" y="474.16999999999996" as="sourcePoint" />
            <mxPoint x="749" y="474.16999999999996" as="targetPoint" />
          </mxGeometry>
        </mxCell>
        <mxCell id="ZMYjU9rQy1zcbgjw8tYx-118" value="" style="endArrow=none;html=1;rounded=0;" edge="1" parent="1">
          <mxGeometry width="50" height="50" relative="1" as="geometry">
            <mxPoint x="749" y="474.16999999999996" as="sourcePoint" />
            <mxPoint x="749" y="434.16999999999996" as="targetPoint" />
          </mxGeometry>
        </mxCell>
        <mxCell id="ZMYjU9rQy1zcbgjw8tYx-119" value="" style="endArrow=none;html=1;rounded=0;" edge="1" parent="1">
          <mxGeometry width="50" height="50" relative="1" as="geometry">
            <mxPoint x="749" y="475.16999999999996" as="sourcePoint" />
            <mxPoint x="749" y="435.16999999999996" as="targetPoint" />
          </mxGeometry>
        </mxCell>
        <mxCell id="ZMYjU9rQy1zcbgjw8tYx-120" value="" style="endArrow=none;html=1;rounded=0;" edge="1" parent="1">
          <mxGeometry width="50" height="50" relative="1" as="geometry">
            <mxPoint x="809" y="475.16999999999996" as="sourcePoint" />
            <mxPoint x="809" y="435.16999999999996" as="targetPoint" />
          </mxGeometry>
        </mxCell>
        <mxCell id="ZMYjU9rQy1zcbgjw8tYx-121" value="" style="endArrow=none;html=1;rounded=0;" edge="1" parent="1">
          <mxGeometry width="50" height="50" relative="1" as="geometry">
            <mxPoint x="749" y="435.16999999999996" as="sourcePoint" />
            <mxPoint x="809" y="435.16999999999996" as="targetPoint" />
          </mxGeometry>
        </mxCell>
        <mxCell id="ZMYjU9rQy1zcbgjw8tYx-122" value="" style="endArrow=none;html=1;rounded=0;" edge="1" parent="1">
          <mxGeometry width="50" height="50" relative="1" as="geometry">
            <mxPoint x="809" y="475.16999999999996" as="sourcePoint" />
            <mxPoint x="879" y="475.16999999999996" as="targetPoint" />
          </mxGeometry>
        </mxCell>
        <mxCell id="ZMYjU9rQy1zcbgjw8tYx-123" value="" style="endArrow=none;html=1;rounded=0;" edge="1" parent="1">
          <mxGeometry width="50" height="50" relative="1" as="geometry">
            <mxPoint x="879" y="475.16999999999996" as="sourcePoint" />
            <mxPoint x="879" y="435.16999999999996" as="targetPoint" />
          </mxGeometry>
        </mxCell>
        <mxCell id="ZMYjU9rQy1zcbgjw8tYx-124" value="" style="endArrow=none;html=1;rounded=0;" edge="1" parent="1">
          <mxGeometry width="50" height="50" relative="1" as="geometry">
            <mxPoint x="939" y="475.16999999999996" as="sourcePoint" />
            <mxPoint x="939" y="435.16999999999996" as="targetPoint" />
          </mxGeometry>
        </mxCell>
        <mxCell id="ZMYjU9rQy1zcbgjw8tYx-125" value="" style="endArrow=none;html=1;rounded=0;" edge="1" parent="1">
          <mxGeometry width="50" height="50" relative="1" as="geometry">
            <mxPoint x="879" y="435.16999999999996" as="sourcePoint" />
            <mxPoint x="939" y="435.16999999999996" as="targetPoint" />
          </mxGeometry>
        </mxCell>
        <mxCell id="ZMYjU9rQy1zcbgjw8tYx-126" value="" style="endArrow=none;html=1;rounded=0;" edge="1" parent="1">
          <mxGeometry width="50" height="50" relative="1" as="geometry">
            <mxPoint x="939" y="475.16999999999996" as="sourcePoint" />
            <mxPoint x="1009" y="475.16999999999996" as="targetPoint" />
          </mxGeometry>
        </mxCell>
        <mxCell id="ZMYjU9rQy1zcbgjw8tYx-127" value="" style="endArrow=none;html=1;rounded=0;" edge="1" parent="1">
          <mxGeometry width="50" height="50" relative="1" as="geometry">
            <mxPoint x="1009" y="475.16999999999996" as="sourcePoint" />
            <mxPoint x="1009" y="435.16999999999996" as="targetPoint" />
          </mxGeometry>
        </mxCell>
        <mxCell id="ZMYjU9rQy1zcbgjw8tYx-128" value="" style="endArrow=none;html=1;rounded=0;" edge="1" parent="1">
          <mxGeometry width="50" height="50" relative="1" as="geometry">
            <mxPoint x="1069" y="475.16999999999996" as="sourcePoint" />
            <mxPoint x="1069" y="435.16999999999996" as="targetPoint" />
          </mxGeometry>
        </mxCell>
        <mxCell id="ZMYjU9rQy1zcbgjw8tYx-129" value="" style="endArrow=none;html=1;rounded=0;" edge="1" parent="1">
          <mxGeometry width="50" height="50" relative="1" as="geometry">
            <mxPoint x="1009" y="435.16999999999996" as="sourcePoint" />
            <mxPoint x="1069" y="435.16999999999996" as="targetPoint" />
          </mxGeometry>
        </mxCell>
        <mxCell id="ZMYjU9rQy1zcbgjw8tYx-130" value="" style="endArrow=none;html=1;rounded=0;" edge="1" parent="1">
          <mxGeometry width="50" height="50" relative="1" as="geometry">
            <mxPoint x="1069" y="475.16999999999996" as="sourcePoint" />
            <mxPoint x="1099" y="475" as="targetPoint" />
          </mxGeometry>
        </mxCell>
        <mxCell id="ZMYjU9rQy1zcbgjw8tYx-131" value="" style="endArrow=none;html=1;rounded=0;" edge="1" parent="1">
          <mxGeometry width="50" height="50" relative="1" as="geometry">
            <mxPoint x="1099" y="475" as="sourcePoint" />
            <mxPoint x="1099" y="435" as="targetPoint" />
          </mxGeometry>
        </mxCell>
        <mxCell id="ZMYjU9rQy1zcbgjw8tYx-132" value="" style="endArrow=none;html=1;rounded=0;strokeWidth=3;" edge="1" parent="1">
          <mxGeometry width="50" height="50" relative="1" as="geometry">
            <mxPoint x="121" y="400" as="sourcePoint" />
            <mxPoint x="1099" y="400" as="targetPoint" />
          </mxGeometry>
        </mxCell>
        <mxCell id="ZMYjU9rQy1zcbgjw8tYx-133" value="" style="endArrow=none;html=1;rounded=0;strokeWidth=3;" edge="1" parent="1">
          <mxGeometry width="50" height="50" relative="1" as="geometry">
            <mxPoint x="129" y="335" as="sourcePoint" />
            <mxPoint x="1099" y="335" as="targetPoint" />
          </mxGeometry>
        </mxCell>
        <mxCell id="ZMYjU9rQy1zcbgjw8tYx-134" value="" style="endArrow=none;html=1;rounded=0;strokeWidth=3;" edge="1" parent="1">
          <mxGeometry width="50" height="50" relative="1" as="geometry">
            <mxPoint x="129" y="480" as="sourcePoint" />
            <mxPoint x="1099" y="480" as="targetPoint" />
          </mxGeometry>
        </mxCell>
        <mxCell id="ZMYjU9rQy1zcbgjw8tYx-135" value="" style="endArrow=none;html=1;rounded=0;" edge="1" parent="1">
          <mxGeometry width="50" height="50" relative="1" as="geometry">
            <mxPoint x="219" y="390" as="sourcePoint" />
            <mxPoint x="219" y="350" as="targetPoint" />
          </mxGeometry>
        </mxCell>
        <mxCell id="ZMYjU9rQy1zcbgjw8tYx-136" value="" style="endArrow=none;html=1;rounded=0;" edge="1" parent="1">
          <mxGeometry width="50" height="50" relative="1" as="geometry">
            <mxPoint x="219" y="350" as="sourcePoint" />
            <mxPoint x="259" y="350" as="targetPoint" />
          </mxGeometry>
        </mxCell>
        <mxCell id="ZMYjU9rQy1zcbgjw8tYx-137" value="T1" style="rounded=1;whiteSpace=wrap;html=1;strokeColor=none;fontStyle=1" vertex="1" parent="1">
          <mxGeometry x="149" y="240" width="70" height="30" as="geometry" />
        </mxCell>
        <mxCell id="ZMYjU9rQy1zcbgjw8tYx-138" value="T2" style="rounded=1;whiteSpace=wrap;html=1;strokeColor=none;fontStyle=1" vertex="1" parent="1">
          <mxGeometry x="274" y="240" width="70" height="30" as="geometry" />
        </mxCell>
        <mxCell id="ZMYjU9rQy1zcbgjw8tYx-139" value="T3" style="rounded=1;whiteSpace=wrap;html=1;strokeColor=none;fontStyle=1" vertex="1" parent="1">
          <mxGeometry x="409" y="240" width="70" height="30" as="geometry" />
        </mxCell>
      </root>
    </mxGraphModel>
  </diagram>
</mxfile>
